<svg class="icon icon-discount" width="22" height="22" viewBox="0 0 22 22" fill="none" xmlns="http://www.w3.org/2000/svg">
    <path d="M20.9928 11.049C21.0151 11.2885 20.9857 11.5328 20.9049 11.7615C20.8249 11.988 20.6949 12.2002 20.5165 12.3786L12.2603 20.635L12.2409 20.653C11.9205 20.9633 11.5034 21.1191 11.087 21.1191V21.1179C10.6614 21.1181 10.2359 20.9569 9.91421 20.6352L8.22618 18.9473C7.90231 19.0389 7.56303 19.0276 7.25374 18.9254C6.88189 18.8025 6.55034 18.5471 6.33892 18.1813L4.80496 15.5263L2.6779 13.3992C2.35523 13.0765 2.19354 12.6509 2.19354 12.2261C2.19354 11.9371 2.26844 11.6481 2.41818 11.391L1.22218 9.31888C0.993644 8.92331 0.947107 8.47109 1.05691 8.06144C1.1669 7.6516 1.43273 7.28257 1.8281 7.05423L11.94 1.21592L11.958 1.20623C12.2035 1.06794 12.4251 1.00662 12.6525 0.997316C12.8753 0.98826 13.0885 1.02926 13.3307 1.09398L17.9031 2.31897H19.3349L19.3356 2.32022C19.7913 2.32041 20.2057 2.50669 20.5054 2.80616H20.5066C20.8069 3.10638 20.9935 3.52119 20.9935 3.977L20.9923 3.97776L20.9928 11.049ZM20.3131 11.5525C20.3648 11.406 20.3829 11.2497 20.3676 11.0969L20.3663 11.0663L20.3658 3.97776H20.3646C20.3646 3.69539 20.2486 3.43724 20.0621 3.25077C19.8748 3.06381 19.6175 2.94665 19.3356 2.94665V2.94791H12.2461C12.0505 2.94791 11.8888 2.95822 11.7524 3.00067C11.6305 3.03897 11.5148 3.10783 11.3927 3.22618L11.379 3.24078L3.12246 11.4975C2.92317 11.6972 2.82248 11.9611 2.82248 12.2261C2.82248 12.4902 2.92266 12.7548 3.12233 12.9544L10.3586 20.1904C10.5591 20.3909 10.8237 20.4915 11.087 20.4915V20.4902C11.346 20.4902 11.6048 20.3949 11.8027 20.2042L11.8156 20.1905L20.0718 11.9341C20.1833 11.8226 20.264 11.6914 20.3131 11.5525ZM7.65308 18.3742L6.51877 17.2399L6.88101 17.8672V17.8685C7.011 18.0936 7.21739 18.2517 7.45021 18.3286C7.51617 18.3503 7.58409 18.3657 7.65308 18.3742ZM2.84776 10.883L10.9344 2.79622L10.9529 2.77912C11.1526 2.58423 11.3498 2.46889 11.5656 2.40135C11.7786 2.335 11.9952 2.31897 12.2461 2.31897H15.4759L13.1684 1.70078C12.9794 1.65015 12.8203 1.61802 12.6771 1.62374C12.549 1.6289 12.4192 1.66562 12.2698 1.74908L12.2545 1.75851L2.14254 7.59688C1.89747 7.73838 1.7322 7.96817 1.66371 8.22362C1.59529 8.47926 1.62328 8.76056 1.76427 9.00482V9.00607L2.84776 10.883ZM17.6149 5.69807C17.9324 6.01559 18.0914 6.43223 18.0914 6.8481H18.0902C18.0904 7.26398 17.9317 7.67986 17.6153 7.9965L17.6145 7.99719C17.4844 8.1273 17.3379 8.23157 17.1816 8.30842C16.8147 8.49136 16.4082 8.52306 16.0378 8.42394C15.6431 8.31804 15.2868 8.06316 15.0618 7.68287H15.0607C15.0507 7.6681 15.0426 7.65263 15.0355 7.6369C14.8249 7.25473 14.783 6.82351 14.8879 6.43235C14.9706 6.12414 15.1436 5.8402 15.3952 5.62324C15.7011 5.35565 16.0829 5.22145 16.465 5.22145C16.881 5.22145 17.2973 5.38043 17.6149 5.69807ZM16.4651 7.84563C16.7113 7.84563 16.9582 7.75476 17.1498 7.57345C17.2833 7.44547 17.3762 7.28448 17.4225 7.11141C17.4887 6.86452 17.4609 6.59246 17.3236 6.35462C17.1858 6.11609 16.9637 5.95516 16.7166 5.889C16.4706 5.82322 16.1997 5.85051 15.9622 5.98692L15.9594 5.98849C15.9403 5.99956 15.9216 6.01113 15.9036 6.02327C15.8527 6.05785 15.8046 6.0976 15.7595 6.14269C15.5647 6.33808 15.4663 6.59297 15.4663 6.8481H15.4676C15.4676 7.10318 15.565 7.35863 15.7595 7.55314L15.7592 7.5542C15.9537 7.74834 16.2095 7.84563 16.4651 7.84563Z" fill="currentColor" stroke="currentColor" stroke-width="0.6"/>
</svg>
