<svg width="17" height="16" viewBox="0 0 17 16" fill="none" xmlns="http://www.w3.org/2000/svg" class="icon icon-account" >
<path fill-rule="evenodd" clip-rule="evenodd" d="M8.26081 1.23073C6.46122 1.23073 5.00227 2.68968 5.00227 4.48951C5.00227 6.28933 6.46122 7.74828 8.26081 7.74828C10.0604 7.74828 11.5193 6.28933 11.5193 4.48951C11.5193 2.68968 10.0604 1.23073 8.26081 1.23073ZM3.77148 4.48951C3.77148 2.01007 5.78137 0 8.26081 0C10.7402 0 12.7501 2.01007 12.7501 4.48951C12.7501 6.96894 10.7402 8.97902 8.26081 8.97902C5.78137 8.97902 3.77148 6.96894 3.77148 4.48951Z" fill="#10100F"/>
<path fill-rule="evenodd" clip-rule="evenodd" d="M5.14338 10.4667C2.79668 10.4667 0.776203 12.1231 0.315961 14.4242L0 16.0039H1.25513L1.52282 14.6656C1.868 12.9397 3.38336 11.6974 5.14338 11.6974H11.6192C13.3792 11.6974 14.8945 12.9397 15.2397 14.6656L15.5074 16.0039H16.7625L16.4466 14.4242C15.9863 12.1231 13.9659 10.4667 11.6192 10.4667H5.14338Z" fill="#10100F"/>
</svg>
