<svg class="icon icon-discount" width="14" height="14" viewBox="0 0 14 14" fill="currentColor" xmlns="http://www.w3.org/2000/svg">
    <path d="M9.65645 0.00706757C10.0512 -0.0341231 10.444 0.106276 10.7238 0.387927L13.5959 3.24828C13.8793 3.52675 14.0215 3.9188 13.9816 4.31468L13.7063 6.68968C13.6718 6.98538 13.5383 7.26041 13.3293 7.47191H13.3303L7.20821 13.6203C6.69653 14.1265 5.87352 14.1265 5.36251 13.6203L0.377154 8.64476C-0.128322 8.13307 -0.128322 7.31009 0.377154 6.79906L6.49922 0.650622C6.6822 0.467101 6.91572 0.342178 7.16817 0.291247L7.27754 0.274646L9.65645 0.00706757ZM10.134 2.85375C9.58187 2.85395 9.13399 3.30158 9.13399 3.85375C9.13417 4.40576 9.58198 4.85355 10.134 4.85375C10.6862 4.85375 11.1338 4.40588 11.134 3.85375C11.134 3.30146 10.6863 2.85375 10.134 2.85375Z" fill="black"/>
</svg>
