<svg xmlns="http://www.w3.org/2000/svg" width="31" height="14" viewBox="0 0 31 14" fill="none">
  <path d="M6.20907 0.0344564C5.2487 0.0446887 4.96507 0.0344561 4.87448 0.0120879C4.83965 0.185085 4.19159 3.31022 4.18977 3.31283C4.05023 3.94509 3.94871 4.39579 3.60385 4.68681C3.40809 4.856 3.17955 4.93762 2.91458 4.93762C2.48869 4.93762 2.24057 4.71656 2.19892 4.29727L2.19095 4.15331C2.19095 4.15331 2.3207 3.30641 2.3207 3.30165C2.3207 3.30165 3.00086 0.453742 3.12264 0.0772893C3.12901 0.0558729 3.13083 0.0446887 3.13243 0.0344564C1.80853 0.0465924 1.57385 0.0344561 1.55769 0.0120879C1.54881 0.0427847 1.51603 0.219351 1.51603 0.219351L0.821531 3.4292L0.761892 3.70142L0.646484 4.59187C0.646484 4.85601 0.696108 5.0716 0.794899 5.25387C1.1113 5.83188 2.01385 5.9185 2.52443 5.9185C3.18228 5.9185 3.79938 5.77239 4.2164 5.50564C4.94026 5.05851 5.12965 4.35962 5.29855 3.73854L5.37685 3.41992C5.37685 3.41992 6.0775 0.462071 6.19655 0.0772893C6.2011 0.0558729 6.20292 0.0446887 6.20907 0.0344564ZM8.59296 2.42058C8.42406 2.42058 8.1154 2.46341 7.83814 2.60547C7.73753 2.65949 7.64238 2.72184 7.542 2.78394L7.63259 2.44199L7.58297 2.38441C6.995 2.50886 6.86343 2.52552 6.32031 2.60547L6.27478 2.63712C6.21173 3.18372 6.15573 3.59467 5.92196 4.66906C5.83295 5.06503 5.74054 5.4648 5.64789 5.85982L5.67293 5.91003C6.22949 5.87933 6.39839 5.87933 6.8821 5.88766L6.92125 5.84316C6.98271 5.51406 6.99068 5.43696 7.1268 4.77043C7.19076 4.45442 7.32416 3.76006 7.38994 3.51281C7.51081 3.45428 7.63009 3.39669 7.74391 3.39669C8.01501 3.39669 7.98201 3.64393 7.97153 3.74245C7.95993 3.90783 7.86113 4.448 7.75984 4.91178L7.69223 5.21114C7.64511 5.4322 7.59344 5.64708 7.54632 5.86624L7.56681 5.91003C8.1154 5.87933 8.2827 5.87933 8.75117 5.88766L8.80625 5.84316C8.89093 5.32916 8.91574 5.19162 9.06598 4.44324L9.14155 4.09939C9.28837 3.42644 9.36212 3.0852 9.25104 2.80726C9.13358 2.49577 8.85178 2.42058 8.59296 2.42058ZM11.256 3.12515C10.9645 3.18369 10.7785 3.22272 10.5936 3.24794C10.4104 3.27864 10.2317 3.30648 9.94991 3.34741L9.9276 3.36859L9.90711 3.38548C9.87775 3.60488 9.85726 3.79454 9.81834 4.01751C9.78533 4.24809 9.73457 4.51008 9.65194 4.88653C9.58798 5.1747 9.55497 5.27512 9.51855 5.37649C9.48304 5.47787 9.44389 5.57638 9.37196 5.85979L9.3888 5.88597L9.40291 5.91C9.66628 5.89691 9.8386 5.88763 10.0157 5.88597C10.1926 5.8793 10.3758 5.88597 10.6594 5.88763L10.6842 5.86646L10.7109 5.84313C10.7518 5.58757 10.758 5.5188 10.783 5.3941C10.8078 5.26037 10.8506 5.07524 10.9556 4.58076C11.0052 4.34851 11.0605 4.11697 11.112 3.87996C11.1654 3.64391 11.2214 3.41142 11.2747 3.17917L11.2667 3.15109L11.256 3.12515ZM11.2623 2.17517C10.9973 2.01169 10.5323 2.06357 10.2193 2.28939C9.90718 2.51069 9.87167 2.8248 10.1357 2.99042C10.3961 3.14938 10.863 3.10202 11.1733 2.8743C11.4847 2.64823 11.5236 2.33698 11.2623 2.17517ZM12.8647 5.96123C13.4007 5.96123 13.9502 5.8068 14.3638 5.34849C14.6821 4.97679 14.828 4.42377 14.8785 4.19605C15.0431 3.44124 14.9149 3.08882 14.754 2.87418C14.5095 2.54698 14.0775 2.44204 13.6293 2.44204C13.3598 2.44204 12.7178 2.46988 12.2164 2.95318C11.8563 3.30179 11.6899 3.77486 11.5895 4.22841C11.4882 4.69053 11.3716 5.52244 12.1035 5.83202C12.3293 5.93339 12.6548 5.96123 12.8647 5.96123ZM12.8228 4.26291C12.9464 3.69133 13.0923 3.21161 13.4647 3.21161C13.7565 3.21161 13.7777 3.56854 13.6479 4.14203C13.6247 4.26934 13.5182 4.74264 13.3741 4.94419C13.2735 5.09292 13.1544 5.1831 13.0229 5.1831C12.9837 5.1831 12.7508 5.1831 12.7472 4.82164C12.7454 4.64317 12.7802 4.4609 12.8228 4.26291ZM16.2186 5.88773L16.2604 5.84323C16.3198 5.51413 16.3296 5.43679 16.4612 4.77051C16.527 4.45449 16.6631 3.76013 16.7271 3.51289C16.8482 3.45411 16.9654 3.39652 17.0829 3.39652C17.3521 3.39652 17.3194 3.64376 17.3087 3.74228C17.2989 3.9079 17.2001 4.44783 17.097 4.91162L17.033 5.21097C16.9841 5.43227 16.9308 5.64691 16.8837 5.86631L16.9042 5.9101C17.4546 5.8794 17.6155 5.8794 18.0867 5.88773L18.1436 5.84323C18.2262 5.329 18.2486 5.19146 18.4033 4.44331L18.4771 4.09922C18.6246 3.42627 18.6993 3.08527 18.59 2.80733C18.4691 2.49584 18.1855 2.42065 17.9303 2.42065C17.7612 2.42065 17.4509 2.46324 17.1753 2.60554C17.0767 2.65956 16.9779 2.72167 16.881 2.78401L16.9654 2.44207L16.9201 2.38424C16.3324 2.50893 16.1981 2.52559 15.6556 2.60554L15.614 2.63719C15.5482 3.18379 15.4947 3.59451 15.2609 4.66913C15.1719 5.0651 15.0795 5.46487 14.9871 5.85989L15.0119 5.9101C15.5694 5.8794 15.7358 5.8794 16.2186 5.88773ZM20.2625 5.90998C20.2971 5.73341 20.5027 4.68686 20.5045 4.68686C20.5045 4.68686 20.6795 3.91897 20.6902 3.89112C20.6902 3.89112 20.7453 3.81117 20.8004 3.77952H20.8814C21.646 3.77952 22.5094 3.77952 23.1862 3.2591C23.6467 2.90216 23.9615 2.37508 24.1019 1.73449C24.1384 1.57744 24.1652 1.39064 24.1652 1.20384C24.1652 0.958503 24.1181 0.715784 23.982 0.52613C23.6369 0.0214161 22.9497 0.0121359 22.1564 0.00832856C22.1539 0.00832856 21.7653 0.0121358 21.7653 0.0121358C20.7499 0.0252236 20.3426 0.0214164 20.1753 0C20.1612 0.077337 20.1346 0.214878 20.1346 0.214878C20.1346 0.214878 19.7708 1.97721 19.7708 1.98007C19.7708 1.98007 18.9004 5.72699 18.8594 5.90355C19.746 5.89237 20.1095 5.89237 20.2625 5.90998ZM20.9365 2.77937C20.9365 2.77937 21.3233 1.02061 21.3214 1.02727L21.334 0.937087L21.3394 0.868317L21.494 0.884974C21.494 0.884974 22.2916 0.956599 22.3103 0.958503C22.6251 1.08581 22.7548 1.41396 22.6642 1.84229C22.5816 2.23373 22.3387 2.56283 22.0266 2.72179C21.7696 2.85647 21.4548 2.86766 21.1305 2.86766H20.9206L20.9365 2.77937ZM23.3445 4.29549C23.2423 4.75095 23.1248 5.58285 23.853 5.87935C24.0852 5.98263 24.2932 6.01332 24.5047 6.00214C24.728 5.98953 24.9349 5.87245 25.1266 5.70398C25.1093 5.77322 25.092 5.84247 25.0747 5.91195L25.1077 5.95645C25.6315 5.93337 25.794 5.93337 26.3615 5.93789L26.4129 5.89696C26.4958 5.38773 26.5739 4.89324 26.7892 3.91904C26.8941 3.4524 26.9988 2.99028 27.1065 2.52554L27.0897 2.47438C26.5037 2.58789 26.3471 2.61216 25.7835 2.69568L25.7407 2.73209C25.735 2.77945 25.7291 2.8249 25.7237 2.87035C25.636 2.72234 25.509 2.59598 25.313 2.51721C25.0624 2.41418 24.4737 2.54696 23.9677 3.02859C23.6122 3.37244 23.4414 3.8436 23.3445 4.29549ZM24.575 4.32333C24.7005 3.76198 24.8446 3.28701 25.2179 3.28701C25.4539 3.28701 25.5782 3.51474 25.5529 3.90309C25.5329 3.99994 25.5113 4.10203 25.4856 4.21744C25.4482 4.38425 25.4077 4.54963 25.3683 4.71525C25.3283 4.82852 25.2816 4.93536 25.2304 5.00651C25.1343 5.14881 24.9058 5.2371 24.7742 5.2371C24.7369 5.2371 24.5065 5.2371 24.4986 4.88206C24.4967 4.70526 24.5316 4.52322 24.575 4.32333ZM31.0011 2.46984L30.9558 2.41582C30.3761 2.53861 30.2711 2.55812 29.7385 2.63331L29.6993 2.67424C29.6975 2.68091 29.6959 2.69114 29.6932 2.70042L29.6914 2.69114C29.2948 3.6475 29.3064 3.44119 28.9837 4.1941C28.9818 4.15983 28.9818 4.13841 28.98 4.102L28.8992 2.46984L28.8484 2.41582C28.2411 2.53861 28.2268 2.55812 27.6659 2.63331L27.6222 2.67424C27.6161 2.69376 27.6161 2.71517 27.6124 2.73849L27.6161 2.74682C27.6862 3.12137 27.6693 3.03785 27.7397 3.62894C27.7724 3.91901 27.8161 4.21075 27.8489 4.49726C27.9042 4.97675 27.9352 5.2128 28.0028 5.94453C27.624 6.59797 27.5343 6.84521 27.1697 7.41869L27.1722 7.4244L26.9154 7.84892C26.886 7.89366 26.8594 7.92436 26.8221 7.93745C26.7811 7.95862 26.7278 7.96243 26.6539 7.96243H26.5116L26.3001 8.69773L27.0256 8.71082C27.4515 8.70891 27.7192 8.5007 27.8633 8.22086L28.3194 7.4037H28.3121L28.3602 7.34611C28.667 6.65555 31.0011 2.46984 31.0011 2.46984ZM23.3444 12.1269H23.0367L24.1758 8.18837H24.5536L24.6736 7.78265L24.6852 8.23383C24.6711 8.51271 24.881 8.75996 25.4323 8.71903H26.0699L26.2893 7.96065H26.0494C25.9114 7.96065 25.8475 7.92424 25.8554 7.84619L25.8438 7.38716H24.6631V7.38954C24.2814 7.39787 23.1414 7.42785 22.9106 7.4921C22.6313 7.5673 22.337 7.7886 22.337 7.7886L22.4526 7.3824H21.3481L21.118 8.18837L19.9637 12.1871H19.7397L19.52 12.94H21.7199L21.6461 13.191H22.7301L22.802 12.94H23.1061L23.3444 12.1269ZM22.4419 8.98864C22.265 9.0398 21.9359 9.19495 21.9359 9.19495L22.2286 8.18837H23.1061L22.8944 8.92177C22.8944 8.92177 22.6233 8.93843 22.4419 8.98864ZM22.4587 10.4266C22.4587 10.4266 22.1831 10.4628 22.0017 10.5056C21.823 10.5623 21.4879 10.7407 21.4879 10.7407L21.7902 9.69324H22.6723L22.4587 10.4266ZM21.9671 12.1361H21.0868L21.342 11.2521H22.2195L21.9671 12.1361ZM24.0869 9.69324H25.3557L25.1734 10.3105H23.8877L23.6947 10.9854H24.8196L23.9678 12.2392C23.9082 12.3313 23.8547 12.3639 23.7953 12.3898C23.7357 12.4214 23.6574 12.4586 23.5668 12.4586H23.2547L23.0402 13.1977H23.8565C24.2808 13.1977 24.5314 12.9959 24.7165 12.731L25.3006 11.8953L25.426 12.7439C25.4527 12.9028 25.5619 12.9959 25.6359 13.0321C25.7176 13.0749 25.8021 13.1484 25.9214 13.1594C26.0493 13.1651 26.1417 13.1696 26.2032 13.1696H26.6042L26.8451 12.3424H26.6869C26.596 12.3424 26.4397 12.3265 26.413 12.2968C26.3864 12.2606 26.3864 12.2049 26.3721 12.1202L26.2448 11.2697H25.7238L25.9523 10.9854H27.2355L27.4328 10.3105H26.2448L26.4299 9.69324H27.6142L27.8339 8.932H24.3029L24.0869 9.69324ZM13.3705 12.308L13.6666 11.2781H14.8838L15.1062 10.5121H13.8879L14.0739 9.8782H15.2644L15.4849 9.13648H12.5062L12.2902 9.8782H12.9669L12.7864 10.5121H12.1078L11.8829 11.2912H12.5595L12.1647 12.6538C12.1115 12.8341 12.1898 12.9029 12.2394 12.9867C12.2902 13.0683 12.3416 13.1223 12.4572 13.153C12.5765 13.1809 12.6582 13.1975 12.7693 13.1975H14.1415L14.386 12.3489L13.7777 12.4363C13.6603 12.4363 13.335 12.4215 13.3705 12.308ZM13.5101 7.37776L13.2017 7.96053C13.1357 8.08784 13.0762 8.16684 13.0227 8.20325C12.9756 8.23394 12.8823 8.24679 12.7471 8.24679H12.5862L12.371 8.99232H12.9055C13.1625 8.99232 13.3599 8.89381 13.4541 8.84455C13.5554 8.78792 13.582 8.82028 13.6603 8.74127L13.8408 8.5778H15.5098L15.7313 7.80157H14.5096L14.7229 7.37776H13.5101ZM15.9741 12.323C15.9456 12.2801 15.9661 12.2047 16.0096 12.0477L16.4657 10.4693H18.0885C18.325 10.4657 18.4957 10.4628 18.6068 10.4545C18.7261 10.4414 18.8558 10.3969 18.9972 10.317C19.1431 10.2332 19.2178 10.1449 19.2808 10.0436C19.3512 9.94243 19.4641 9.72112 19.561 9.37989L20.1344 7.38245L18.4504 7.39268C18.4504 7.39268 17.9319 7.47264 17.7036 7.56092C17.4732 7.65944 17.1441 7.93452 17.1441 7.93452L17.2961 7.38697H16.2559L14.7995 12.4362C14.7478 12.6323 14.7132 12.7746 14.7052 12.8601C14.7025 12.9521 14.8163 13.0433 14.8901 13.1121C14.9773 13.1808 15.1061 13.1696 15.2297 13.1808C15.3597 13.1911 15.5445 13.1975 15.7997 13.1975H16.5991L16.8445 12.3313L16.1288 12.402C16.0524 12.402 15.997 12.3591 15.9741 12.323ZM16.7601 9.40321H18.4646L18.3562 9.75824C18.3409 9.76657 18.3045 9.74064 18.1311 9.76205H16.6551L16.7601 9.40321ZM17.1015 8.21246H18.8203L18.6967 8.64007C18.6967 8.64007 17.8866 8.63174 17.7568 8.65673C17.186 8.76 16.8525 9.07887 16.8525 9.07887L17.1015 8.21246ZM18.3944 10.9472C18.3802 11.0002 18.3579 11.0326 18.3267 11.0569C18.2921 11.0802 18.2361 11.0885 18.1526 11.0885H17.9097L17.9241 10.6561H16.9138L16.8729 12.7699C16.8713 12.9225 16.8854 13.0108 16.9922 13.0814C17.0989 13.1697 17.4278 13.1809 17.8706 13.1809H18.5036L18.7322 12.3897L18.1811 12.4213L17.9978 12.4325C17.9728 12.4213 17.9489 12.4111 17.9222 12.3833C17.899 12.3592 17.8599 12.374 17.8662 12.2214L17.8706 11.6796L18.4485 11.6546C18.7606 11.6546 18.894 11.5485 19.0078 11.4474C19.1164 11.3505 19.1519 11.2391 19.1929 11.0885L19.2898 10.6088H18.4956L18.3944 10.9472Z" fill="#020202"/>
</svg>