<svg xmlns="http://www.w3.org/2000/svg" width="34" height="14" viewBox="0 0 34 14" fill="none">
  <path fill-rule="evenodd" clip-rule="evenodd" d="M15.7393 10.3882V6.49213H17.7966C18.6396 6.49213 19.3511 6.21603 19.9312 5.6715L20.0704 5.53345C21.13 4.40603 21.0604 2.64972 19.9312 1.60668C19.3666 1.05447 18.5932 0.755365 17.7966 0.770704H14.4941V10.3882H15.7393ZM15.7382 5.30819V1.94896H17.8267C18.2753 1.94896 18.7008 2.11769 19.0179 2.42447C19.6909 3.0687 19.7064 4.14243 19.0566 4.80967C18.7395 5.13946 18.2908 5.32353 17.8267 5.30819H15.7382ZM25.8733 4.31822C25.3397 3.83504 24.6126 3.58962 23.6923 3.58962C22.509 3.58962 21.6196 4.01911 21.0318 4.87042L22.13 5.553C22.5322 4.97012 23.0813 4.67868 23.7774 4.67868C24.2182 4.67868 24.6436 4.83974 24.9762 5.13118C25.301 5.40728 25.4866 5.8061 25.4866 6.22792V6.51169C25.0071 6.25093 24.4038 6.11287 23.6614 6.11287C22.7951 6.11287 22.0991 6.31228 21.5809 6.71876C21.0627 7.12525 20.7997 7.66211 20.7997 8.34469C20.7843 8.96592 21.055 9.55647 21.5345 9.95528C22.0217 10.3848 22.6405 10.5995 23.3675 10.5995C24.2259 10.5995 24.9065 10.2237 25.4247 9.4721H25.4789V10.3848H26.6699V6.32762C26.6699 5.47631 26.407 4.80139 25.8733 4.31822ZM22.5027 9.16856C22.2474 8.98449 22.0927 8.68538 22.0927 8.36326C22.0927 8.0028 22.2629 7.70369 22.5955 7.46594C22.9358 7.22818 23.3613 7.10547 23.8641 7.10547C24.5602 7.0978 25.1017 7.25119 25.4885 7.55797C25.4885 8.07949 25.2796 8.53199 24.8697 8.91547C24.4984 9.2836 23.9956 9.49068 23.4696 9.49068C23.1215 9.49835 22.7811 9.3833 22.5027 9.16856ZM29.3576 13.2765L33.5185 3.80472H32.165L30.2392 8.52912H30.216L28.2438 3.80472H26.8904L29.6205 9.96331L28.0737 13.2765H29.3576Z" fill="#020202"/>
  <path d="M11.438 5.64721C11.438 5.2714 11.4071 4.8956 11.3452 4.52747H6.09375V6.65191H9.10231C8.97857 7.33449 8.57639 7.94805 7.9886 8.33153V9.71203H9.78291C10.8347 8.75335 11.438 7.33449 11.438 5.64721Z" fill="#020202"/>
  <path d="M6.09411 11.0462C7.59453 11.0462 8.86292 10.5553 9.78328 9.71167L7.98897 8.33116C7.48625 8.66862 6.84432 8.86035 6.09411 8.86035C4.64011 8.86035 3.41039 7.88633 2.96954 6.58252H1.12109V8.00904C2.06465 9.87273 3.99044 11.0462 6.09411 11.0462Z" fill="#020202"/>
  <path d="M2.96974 6.57652C2.73768 5.89394 2.73768 5.15 2.96974 4.45975V3.04089H1.12099C0.324253 4.5978 0.324253 6.43847 1.12099 7.99537L2.96974 6.57652Z" fill="#020202"/>
  <path d="M6.09412 2.18613C6.89073 2.1708 7.6564 2.4699 8.22873 3.01444L9.82195 1.43453C8.80878 0.49885 7.47852 -0.0150052 6.09412 0.000333783C3.99044 0.000333783 2.06465 1.18143 1.12109 3.04512L2.96954 4.47164C3.41039 3.16016 4.64011 2.18613 6.09412 2.18613Z" fill="#020202"/>
</svg>