<svg xmlns="http://www.w3.org/2000/svg" width="45" height="11" viewBox="0 0 45 11" fill="none">
  <path fill-rule="evenodd" clip-rule="evenodd" d="M2.6842 10.1295H0.494141V0.31897H2.6842V10.1295ZM8.15216 0.31897H6.00959C6.00959 2.12435 5.2022 3.78141 3.79451 4.86551L2.94566 5.51905L6.23467 10.1299H8.93887L5.91254 5.88721C7.34707 4.41864 8.15216 2.44287 8.15216 0.31897ZM11.6447 10.1249H9.57649V0.31897H11.6447V10.1249ZM17.894 3.33832V3.77224C17.3359 3.38085 16.6623 3.15083 15.9358 3.15083C14.0131 3.15083 12.4543 4.7533 12.4543 6.73006C12.4543 8.70681 14.0131 10.3093 15.9358 10.3093C16.6623 10.3093 17.3359 10.0793 17.894 9.68797V10.1215H19.8695V3.33832H17.894ZM17.8886 6.73193C17.8886 7.69578 17.0872 8.47719 16.0986 8.47719C15.1101 8.47719 14.3086 7.69578 14.3086 6.73193C14.3086 5.76807 15.1101 4.98686 16.0986 4.98686C17.0872 4.98686 17.8886 5.76807 17.8886 6.73193ZM38.7343 3.77224V3.33832H40.7097V10.1215H38.7343V9.68797C38.1762 10.0793 37.5026 10.3093 36.776 10.3093C34.8532 10.3093 33.2945 8.70681 33.2945 6.73006C33.2945 4.7533 34.8532 3.15083 36.776 3.15083C37.5026 3.15083 38.1762 3.38085 38.7343 3.77224ZM36.9387 8.47719C37.9274 8.47719 38.7287 7.69578 38.7287 6.73193C38.7287 5.76807 37.9274 4.98686 36.9387 4.98686C35.9501 4.98686 35.1488 5.76807 35.1488 6.73193C35.1488 7.69578 35.9501 8.47719 36.9387 8.47719ZM29.7847 3.16168C28.9956 3.16168 28.2488 3.41355 27.7495 4.10843V3.34453H25.7826V10.1273H27.7736V6.56271C27.7736 5.53122 28.4465 5.0261 29.2566 5.0261C30.1247 5.0261 30.6239 5.5593 30.6239 6.54867V10.1273H32.5969V5.81374C32.5969 4.2352 31.3761 3.16168 29.7847 3.16168ZM22.9255 3.34424V4.2277C23.3215 3.69776 24.0594 3.34463 24.8616 3.34463V5.31842C24.8579 5.31838 24.8542 5.31818 24.8506 5.31798L24.8506 5.31798C24.8465 5.31776 24.8424 5.31753 24.8381 5.31753C24.0565 5.31753 22.9301 5.89187 22.9301 6.96035V10.1273H20.903V3.34424H22.9255ZM41.5675 8.99495C41.5675 8.29102 42.1225 7.72046 42.8071 7.72046C43.4917 7.72046 44.0468 8.29102 44.0468 8.99495C44.0468 9.69868 43.4917 10.2693 42.8071 10.2693C42.1225 10.2693 41.5675 9.69868 41.5675 8.99495Z" fill="#020202"/>
</svg>