<svg xmlns="http://www.w3.org/2000/svg" width="25" height="14" viewBox="0 0 25 14" fill="none">
  <ellipse cx="7.95274" cy="6.9241" rx="7.20274" ry="6.9241" fill="#020202"/>
  <ellipse cx="17.2926" cy="6.9241" rx="7.20274" ry="6.9241" fill="#020202"/>
  <path fill-rule="evenodd" clip-rule="evenodd" d="M12.6191 11.8636C14.1707 10.5936 15.1548 8.70205 15.1548 6.58955C15.1548 4.47994 14.1734 2.59068 12.6255 1.32068C11.0739 2.59072 10.0898 4.48226 10.0898 6.59476C10.0898 8.70438 11.0713 10.5936 12.6191 11.8636Z" fill="#020202"/>
  <path d="M12.6191 11.8636L12.4288 12.0956L12.6189 12.2515L12.8092 12.0958L12.6191 11.8636ZM12.6255 1.32068L12.8158 1.08875L12.6257 0.932806L12.4355 1.08853L12.6255 1.32068ZM14.8548 6.58955C14.8548 8.60592 13.916 10.4144 12.4291 11.6315L12.8092 12.0958C14.4254 10.7728 15.4548 8.79818 15.4548 6.58955H14.8548ZM12.4352 1.5526C13.9185 2.76965 14.8548 4.57593 14.8548 6.58955H15.4548C15.4548 4.38394 14.4282 2.41171 12.8158 1.08875L12.4352 1.5526ZM10.3898 6.59476C10.3898 4.57839 11.3287 2.76991 12.8155 1.55282L12.4355 1.08853C10.8192 2.41152 9.78984 4.38613 9.78984 6.59476H10.3898ZM12.8094 11.6317C11.3261 10.4147 10.3898 8.60838 10.3898 6.59476H9.78984C9.78984 8.80037 10.8164 10.7726 12.4288 12.0956L12.8094 11.6317Z" fill="white"/>
</svg>