<svg xmlns="http://www.w3.org/2000/svg" width="40" height="11" viewBox="0 0 40 11" fill="none">
  <path fill-rule="evenodd" clip-rule="evenodd" d="M4.47432 0.31897L0 10.2205H5.35639L6.02043 8.64178H7.53827L8.2023 10.2205H14.0982V9.01557L14.6235 10.2205H17.6734L18.1987 8.9901V10.2205H30.4605L31.9515 8.68278L33.3476 10.2205L39.6455 10.2332L35.1571 5.29737L39.6455 0.31897H33.4453L31.9939 1.82827L30.6418 0.31897H17.3025L16.1571 2.87464L14.9848 0.31897H9.63955V1.4829L9.04493 0.31897H4.47432ZM22.7848 1.72728H29.8261L31.9797 4.05358L34.2027 1.72728H36.3563L33.0841 5.29826L36.3563 8.82808H34.105L31.9514 6.47476L29.7171 8.82808H22.7848V1.72728ZM24.5243 4.49645V3.19944V3.1982H28.9179L30.835 5.27245L28.8329 7.35805H24.5243V5.94208H28.3656V4.49645H24.5243ZM5.51099 1.72728H8.12194L11.0898 8.44156V1.72728H13.95L16.2422 6.54138L18.3549 1.72728H21.2008V8.83228H19.4691L19.455 3.26484L16.9304 8.83228H15.3813L12.8426 3.26484V8.83228H9.28012L8.60475 7.23943H4.95597L4.28199 8.83088H2.37328L5.51099 1.72728ZM5.5785 5.76448L6.78063 2.92696L7.98136 5.76448H5.5785Z" fill="#020202"/>
</svg>