<svg xmlns="http://www.w3.org/2000/svg" width="35" height="14" viewBox="0 0 35 14" fill="none">
  <path d="M28.2278 13.6399C28.1208 13.6399 27.6426 13.6329 27.5284 13.612V12.1959C27.6283 12.2168 27.8924 12.2238 28.0137 12.2238C28.7631 12.2238 29.1842 11.9448 29.4125 11.2403L29.5053 10.9054L26.7148 3.23914H28.656L30.483 9.19638H30.6044L32.4242 3.23914H34.2941L31.475 11.1147C30.8113 13.0121 29.9763 13.6399 28.2278 13.6399Z" fill="#020202"/>
  <path d="M22.7588 9.60669C23.8293 9.60669 24.6286 8.93005 24.6286 8.04414V7.43725L22.8658 7.54886C21.8738 7.61165 21.4099 7.96043 21.4099 8.58127C21.4099 9.22303 21.9737 9.60669 22.7588 9.60669ZM22.2378 10.967C20.7319 10.967 19.6543 10.0741 19.6543 8.67893C19.6543 7.29774 20.7177 6.50251 22.616 6.3909L24.6286 6.27231V5.63055C24.6286 4.88415 24.1148 4.46561 23.1584 4.46561C22.3448 4.46561 21.7882 4.74464 21.624 5.26084H19.954C20.0968 3.91453 21.3885 3.05652 23.2441 3.05652C25.2495 3.05652 26.3771 4.01219 26.3771 5.63055V10.8414H24.6714V9.79504H24.5501C24.1148 10.5345 23.2584 10.967 22.2378 10.967Z" fill="#020202"/>
  <path d="M11.8105 0.787598H15.9641C18.0195 0.787598 19.4254 2.16181 19.4254 4.19173C19.4254 6.18678 17.9696 7.55402 15.8856 7.55402H13.6518V10.8535H11.8105V0.787598ZM13.6518 2.29435V6.06122H15.4717C16.7849 6.06122 17.5556 5.39155 17.5556 4.19173C17.5556 2.95704 16.8063 2.29435 15.4788 2.29435H13.6518Z" fill="#020202"/>
  <path d="M6.6099 2.65076C6.93105 2.65076 8.08007 2.67866 8.82942 3.74594C8.76519 3.79477 7.62331 4.42259 7.62331 5.83168C7.62331 7.46399 9.07921 8.04297 9.12203 8.05692C9.11489 8.0918 8.88652 8.84517 8.3584 9.61947C7.88024 10.2891 7.37353 10.9658 6.6099 10.9658C5.84627 10.9658 5.64644 10.5333 4.77576 10.5333C3.91221 10.5333 3.60533 10.9797 2.91307 10.9797C2.21367 10.9797 1.72123 10.3519 1.1717 9.59157C0.522259 8.67776 -0.00585938 7.27564 -0.00585938 5.94329C-0.00585938 3.8157 1.41435 2.67866 2.81315 2.67866C3.54824 2.67866 4.16913 3.15301 4.63302 3.15301C5.0755 3.15301 5.76063 2.65076 6.6099 2.65076ZM6.21738 1.7509C5.83913 2.19734 5.19682 2.53218 4.69011 2.53218C4.63302 2.53218 4.57593 2.5252 4.54024 2.51822C4.53311 2.49032 4.51883 2.39964 4.51883 2.31593C4.51883 1.7509 4.81858 1.18587 5.13259 0.830107C5.53939 0.362736 6.22451 0.0209271 6.78118 0C6.79545 0.0627812 6.80259 0.139514 6.80259 0.216246C6.80259 0.781277 6.55994 1.33933 6.21738 1.7509Z" fill="#020202"/>
</svg>