<svg xmlns="http://www.w3.org/2000/svg" width="31" height="10" viewBox="0 0 31 10" fill="none">
  <path fill-rule="evenodd" clip-rule="evenodd" d="M8.24053 9.75698H5.72806L3.84402 2.62962C3.75459 2.30176 3.56472 2.01191 3.28542 1.8753C2.58839 1.532 1.82032 1.25879 0.982422 1.12099V0.846588H5.02982C5.58841 0.846588 6.00736 1.25879 6.07719 1.73751L7.05474 6.87871L9.56598 0.846588H12.0086L8.24053 9.75698ZM13.4117 9.75698H11.0389L12.9927 0.846588H15.3656L13.4117 9.75698ZM18.4305 3.31189C18.5003 2.83198 18.9193 2.55758 19.4081 2.55758C20.1761 2.48868 21.0128 2.62647 21.7111 2.96859L22.13 1.05014C21.4318 0.775735 20.6637 0.637939 19.9667 0.637939C17.6637 0.637939 15.9879 1.87216 15.9879 3.5851C15.9879 4.88822 17.1749 5.57245 18.0128 5.98465C18.9193 6.39566 19.2684 6.67006 19.1986 7.08108C19.1986 7.69759 18.5003 7.972 17.8033 7.972C16.9654 7.972 16.1275 7.76649 15.3607 7.42319L14.9417 9.34282C15.7796 9.68494 16.6861 9.82273 17.524 9.82273C20.1063 9.89044 21.7111 8.65741 21.7111 6.80667C21.7111 4.47602 18.4305 4.33942 18.4305 3.31189ZM30.0171 9.75698L28.133 0.846588H26.1093C25.6904 0.846588 25.2714 1.12099 25.1318 1.532L21.643 9.75698H24.0856L24.5732 8.45505H27.5744L27.8537 9.75698H30.0171ZM26.4597 3.24072L27.1568 6.5989H25.2029L26.4597 3.24072Z" fill="#020202"/>
</svg>