<svg xmlns="http://www.w3.org/2000/svg" width="45" height="12" viewBox="0 0 45 12" fill="none">
  <path fill-rule="evenodd" clip-rule="evenodd" d="M6.00911 0.31897H2.6231C2.39139 0.31897 2.19432 0.485144 2.15819 0.710781L0.788708 9.27863C0.761489 9.44775 0.894174 9.60013 1.06796 9.60013H2.68448C2.91619 9.60013 3.11325 9.43396 3.14939 9.20787L3.51875 6.89702C3.55438 6.6707 3.75193 6.50475 3.98316 6.50475H5.05505C7.28555 6.50475 8.57275 5.43965 8.9091 3.32911C9.06054 2.40577 8.91551 1.68025 8.4772 1.172C7.99605 0.61424 7.14234 0.31897 6.00911 0.31897ZM6.39976 3.44826C6.21463 4.64721 5.28628 4.64721 4.38866 4.64721H3.87769L4.23615 2.40803C4.25744 2.27283 4.37626 2.17312 4.5149 2.17312H4.74909C5.36054 2.17312 5.9374 2.17312 6.23549 2.517C6.41305 2.72229 6.46758 3.02706 6.39976 3.44826ZM16.1308 3.40983H14.5093C14.3711 3.40983 14.2517 3.50953 14.2304 3.64496L14.1587 4.09239L14.0453 3.93028C13.6943 3.42746 12.9116 3.25948 12.1303 3.25948C10.3384 3.25948 8.80805 4.5986 8.50997 6.47717C8.35508 7.41408 8.57527 8.31007 9.11393 8.93498C9.60814 9.50947 10.3152 9.7489 11.1563 9.7489C12.6 9.7489 13.4008 8.83278 13.4008 8.83278L13.3284 9.2775C13.3011 9.44752 13.4338 9.5999 13.6065 9.5999H15.0672C15.2995 9.5999 15.4954 9.43373 15.5321 9.20764L16.4085 3.73132C16.4362 3.56289 16.304 3.40983 16.1308 3.40983ZM13.8705 6.52397C13.714 7.43804 12.9787 8.05165 12.0412 8.05165C11.5703 8.05165 11.1939 7.90266 10.9524 7.62027C10.7127 7.33992 10.6215 6.94065 10.6978 6.49616C10.844 5.58977 11.5916 4.95627 12.515 4.95627C12.9753 4.95627 13.3497 5.10707 13.5962 5.39194C13.8432 5.67975 13.9413 6.08129 13.8705 6.52397ZM23.137 3.4096H24.7666C24.9948 3.4096 25.1279 3.66214 24.9982 3.84686L19.5788 11.566C19.491 11.691 19.3465 11.7654 19.192 11.7654H17.5646C17.3355 11.7654 17.2017 11.5108 17.3343 11.3256L19.0218 8.97522L17.2271 3.7779C17.165 3.59725 17.3002 3.4096 17.4949 3.4096H19.096C19.3041 3.4096 19.4876 3.54435 19.5476 3.74082L20.5001 6.87983L22.7475 3.61331C22.8355 3.48579 22.9817 3.4096 23.137 3.4096Z" fill="#020202"/>
  <path fill-rule="evenodd" clip-rule="evenodd" d="M40.8235 9.27909L42.2132 0.554555C42.2345 0.419128 42.3534 0.319422 42.4915 0.31897H44.056C44.2287 0.31897 44.3614 0.471805 44.3341 0.640919L42.9638 9.20832C42.928 9.43441 42.731 9.60058 42.4989 9.60058H41.1017C40.9289 9.60058 40.7963 9.4482 40.8235 9.27909ZM30.1811 0.319423H26.7945C26.5633 0.319423 26.3662 0.485597 26.33 0.711233L24.9606 9.27909C24.9333 9.4482 25.066 9.60058 25.239 9.60058H26.9766C27.1382 9.60058 27.2763 9.48437 27.3015 9.32611L27.6901 6.89747C27.7259 6.67115 27.9234 6.50521 28.1545 6.50521H29.2259C31.4569 6.50521 32.7438 5.4401 33.0804 3.32957C33.2323 2.40622 33.0864 1.6807 32.6483 1.17245C32.1674 0.614693 31.3143 0.319423 30.1811 0.319423ZM30.5718 3.44871C30.3871 4.64766 29.4587 4.64766 28.5605 4.64766H28.0501L28.4091 2.40848C28.4304 2.27328 28.5482 2.17357 28.6872 2.17357H28.9214C29.5325 2.17357 30.1099 2.17357 30.4077 2.51745C30.5855 2.72274 30.6396 3.02751 30.5718 3.44871ZM40.3018 3.41028H38.6815C38.5422 3.41028 38.424 3.50998 38.4031 3.64541L38.3314 4.09284L38.2175 3.93073C37.8665 3.42791 37.0843 3.25993 36.303 3.25993C34.511 3.25993 32.9812 4.59905 32.6831 6.47762C32.5287 7.41454 32.748 8.31052 33.2866 8.93543C33.7817 9.50992 34.4879 9.74935 35.329 9.74935C36.7727 9.74935 37.5732 8.83324 37.5732 8.83324L37.5011 9.27796C37.4738 9.44798 37.6065 9.60036 37.7804 9.60036H39.2403C39.4715 9.60036 39.6685 9.43418 39.7047 9.20809L40.5816 3.73178C40.6084 3.56334 40.4757 3.41028 40.3018 3.41028ZM38.0418 6.52442C37.8862 7.4385 37.1501 8.0521 36.2123 8.0521C35.7423 8.0521 35.3652 7.90311 35.1235 7.62073C34.8838 7.34038 34.7938 6.94111 34.8692 6.49662C35.016 5.59023 35.7627 4.95672 36.6861 4.95672C37.1466 4.95672 37.5208 5.10752 37.7675 5.3924C38.0154 5.68021 38.1135 6.08174 38.0418 6.52442Z" fill="#020202"/>
</svg>