<svg xmlns="http://www.w3.org/2000/svg" width="32" height="13" viewBox="0 0 32 13" fill="none">
  <path d="M4.42771 5.48478C3.20786 5.22018 2.66443 5.11663 2.66443 4.64656C2.66443 4.20445 3.03219 3.9842 3.76771 3.9842C4.41457 3.9842 4.88741 4.2669 5.23546 4.82078C5.26173 4.86352 5.31591 4.87831 5.36024 4.8553L6.73277 4.16171C6.78202 4.13706 6.80008 4.0746 6.77217 4.02694C6.20247 3.03915 5.15009 2.49841 3.76443 2.49841C1.94369 2.49841 0.8125 3.3958 0.8125 4.82242C0.8125 6.3378 2.18995 6.72076 3.41144 6.98537C4.63293 7.24999 5.178 7.35353 5.178 7.82357C5.178 8.29369 4.78069 8.51551 3.98771 8.51551C3.25547 8.51551 2.71204 8.18025 2.38368 7.52939C2.35905 7.48173 2.30159 7.46201 2.25399 7.48667L0.884739 8.16549C0.837123 8.19012 0.817426 8.24764 0.842049 8.29698C1.38548 9.3899 2.50025 10.0046 3.98934 10.0046C5.88561 10.0046 7.03157 9.12202 7.03157 7.651C7.03157 6.18002 5.64755 5.75269 4.42771 5.48807V5.48478Z" fill="#020202"/>
  <path d="M11.7835 2.50153C11.0053 2.50153 10.3174 2.77764 9.82323 3.26907C9.79202 3.29866 9.74108 3.27729 9.74108 3.23456V0.0969711C9.74108 0.042733 9.6984 0 9.64424 0H7.92692C7.87276 0 7.83008 0.042733 7.83008 0.0969711V9.83519C7.83008 9.88942 7.87276 9.9321 7.92692 9.9321H9.64424C9.6984 9.9321 9.74108 9.88942 9.74108 9.83519V5.5635C9.74108 4.73843 10.3732 4.10565 11.2253 4.10565C12.0774 4.10565 12.6947 4.72528 12.6947 5.5635V9.83519C12.6947 9.88942 12.7373 9.9321 12.7915 9.9321H14.5088C14.5631 9.9321 14.6057 9.88942 14.6057 9.83519V5.5635C14.6057 3.76872 13.4302 2.50316 11.7835 2.50316V2.50153Z" fill="#020202"/>
  <path d="M18.0888 2.22205C17.1562 2.22205 16.2828 2.50803 15.6556 2.92057C15.6129 2.94851 15.5982 3.00604 15.6244 3.05041L16.3813 4.3439C16.4092 4.38992 16.4683 4.40636 16.5142 4.37842C16.9904 4.09079 17.5355 3.94123 18.092 3.94452C19.591 3.94452 20.6926 5.00298 20.6926 6.40166C20.6926 7.59326 19.811 8.47584 18.6929 8.47584C17.7817 8.47584 17.1497 7.94499 17.1497 7.19551C17.1497 6.76654 17.3319 6.41481 17.8063 6.16663C17.8556 6.14034 17.8737 6.07952 17.8441 6.03185L17.1299 4.82219C17.107 4.78274 17.0577 4.76466 17.0134 4.78109C16.0562 5.13611 15.3848 5.99076 15.3848 7.13798C15.3848 8.8736 16.7654 10.1688 18.6913 10.1688C20.9405 10.1688 22.5577 8.60902 22.5577 6.37208C22.5577 3.9741 20.6762 2.22205 18.0888 2.22205Z" fill="#020202"/>
  <path d="M27.5805 2.48443C26.712 2.48443 25.9371 2.80493 25.3707 3.37032C25.3395 3.40155 25.2886 3.37854 25.2886 3.3358V2.65537C25.2886 2.60113 25.2459 2.55839 25.1917 2.55839H23.5187C23.4646 2.55839 23.4219 2.60113 23.4219 2.65537V12.3787C23.4219 12.433 23.4646 12.4757 23.5187 12.4757H25.236C25.2902 12.4757 25.3329 12.433 25.3329 12.3787V9.19025C25.3329 9.14749 25.3838 9.12615 25.415 9.15407C25.9798 9.68003 26.7268 9.98738 27.5821 9.98738C29.5966 9.98738 31.1678 8.35527 31.1678 6.23507C31.1678 4.11486 29.5949 2.48279 27.5821 2.48279L27.5805 2.48443ZM27.257 8.3405C26.1111 8.3405 25.2426 7.42831 25.2426 6.22193C25.2426 5.01554 26.1094 4.10336 27.257 4.10336C28.4046 4.10336 29.2699 5.00075 29.2699 6.22193C29.2699 7.4431 28.4162 8.3405 27.2554 8.3405H27.257Z" fill="#020202"/>
</svg>